<svg width="24" height="24" viewBox="0 0 24 24" fill="none" xmlns="http://www.w3.org/2000/svg">
<path d="M12 1.75C14.188 1.75 16.2868 2.61884 17.834 4.16602C19.3812 5.71319 20.25 7.81196 20.25 10C20.25 13.0988 18.1922 16.1596 16.1865 18.416C15.1778 19.5508 14.1705 20.4962 13.415 21.1572C13.0611 21.4669 12.7611 21.7135 12.543 21.8896L12.4004 21.7002L12.3193 21.6152C12.2664 21.5713 12.2046 21.5406 12.1387 21.5215C12.2015 21.5033 12.2621 21.475 12.3154 21.4316C12.5191 21.2656 12.7814 21.0459 13.085 20.7803C13.8295 20.1288 14.8222 19.1991 15.8135 18.084C17.8076 15.8406 19.75 12.9012 19.75 10C19.75 7.94457 18.9339 5.97294 17.4805 4.51953C16.0271 3.06612 14.0554 2.25 12 2.25C9.94457 2.25 7.97294 3.06612 6.51953 4.51953C5.06612 5.97294 4.25 7.94457 4.25 10C4.25 12.9012 6.1924 15.8406 8.18652 18.084C9.17778 19.1991 10.1705 20.1288 10.915 20.7803C11.2186 21.0459 11.4809 21.2656 11.6846 21.4316C11.7376 21.4748 11.7979 21.5032 11.8604 21.5215C11.7948 21.5406 11.7333 21.5715 11.6807 21.6152L11.5996 21.7002L11.5557 21.7578H11.5566L11.5518 21.7627L11.5322 21.7891V21.79C11.5315 21.791 11.531 21.792 11.5303 21.793L11.5254 21.7979L11.4727 21.8691L11.4717 21.8701C11.471 21.871 11.4704 21.8721 11.4697 21.873L11.457 21.8896C11.2389 21.7135 10.9389 21.4669 10.585 21.1572C9.82949 20.4962 8.82216 19.5508 7.81348 18.416C5.80777 16.1596 3.75 13.0988 3.75 10C3.75 7.81196 4.61884 5.71319 6.16602 4.16602C7.71319 2.61884 9.81196 1.75 12 1.75ZM12 6.75C13.7949 6.75 15.25 8.20507 15.25 10C15.25 11.7949 13.7949 13.25 12 13.25C10.2051 13.25 8.75 11.7949 8.75 10C8.75 8.20507 10.2051 6.75 12 6.75ZM12 7.25C10.4812 7.25 9.25 8.48122 9.25 10C9.25 11.5188 10.4812 12.75 12 12.75C13.5188 12.75 14.75 11.5188 14.75 10C14.75 8.48122 13.5188 7.25 12 7.25Z" stroke="#050505" stroke-linecap="round" stroke-linejoin="round"/>
</svg>
