<svg width="24" height="24" viewBox="0 0 24 24" fill="none" xmlns="http://www.w3.org/2000/svg">
<path d="M20.75 10.2227C20.9129 10.2561 21.0824 10.258 21.25 10.2236V19C21.25 19.5967 21.0128 20.1689 20.5908 20.5908C20.1689 21.0128 19.5967 21.25 19 21.25H5C4.40326 21.25 3.83114 21.0128 3.40918 20.5908C2.98724 20.1689 2.75 19.5967 2.75 19V10.2236C2.9175 10.258 3.08716 10.257 3.25 10.2236V19C3.25 19.4641 3.43453 19.9091 3.7627 20.2373C4.09089 20.5655 4.53587 20.75 5 20.75H19C19.4641 20.75 19.9091 20.5655 20.2373 20.2373C20.5655 19.9091 20.75 19.4641 20.75 19V10.2227ZM10.75 8.75V9C10.75 9.08562 10.759 9.16922 10.7754 9.25H4.27246L4.52246 8.75H10.75ZM3 8.75H3.40527L3.22363 9.1123C3.1618 9.23542 3.01198 9.28513 2.88867 9.22363C2.76662 9.16261 2.71597 9.01523 2.77441 8.89258C2.81462 8.80834 2.90044 8.75 3 8.75ZM21 8.75C21.1095 8.75 21.2016 8.82088 21.2354 8.91895C21.2383 8.92742 21.2412 8.93574 21.2432 8.94434C21.2438 8.94726 21.2446 8.95016 21.2451 8.95312C21.2658 9.06054 21.214 9.17249 21.1113 9.22363C20.9878 9.28507 20.8379 9.23488 20.7764 9.11133L20.5967 8.75H21ZM17.2598 2.80371C17.5015 2.85717 17.734 2.94978 17.9473 3.08008C18.305 3.29868 18.5945 3.61295 18.7832 3.9873L18.7852 3.99121L20.6572 7.75H20.0986L18.3379 4.21484L18.3369 4.21191L18.3359 4.21094L18.2773 4.10352C18.1322 3.86011 17.9294 3.65526 17.6865 3.50684C17.5237 3.40733 17.3465 3.33587 17.1621 3.29395C17.2227 3.21122 17.2598 3.11037 17.2598 3V2.80371ZM12.25 4.25V7.75H11.75V4.25H12.25ZM7.24023 2.75H10.7754C10.759 2.8308 10.75 2.91436 10.75 3V3.25H7.23828C6.91425 3.24962 6.59643 3.3392 6.32031 3.50879C6.04417 3.67848 5.81994 3.92165 5.67383 4.21094V4.21191L5.67285 4.21387L3.90527 7.75H3.3457L5.22754 3.98633L5.22656 3.98535C5.41441 3.6133 5.70347 3.30124 6.05859 3.08301C6.41397 2.8647 6.82317 2.7493 7.24023 2.75ZM11.75 8.75H12.25V9C12.25 9.13807 12.1381 9.25 12 9.25C11.8619 9.25 11.75 9.13807 11.75 9V8.75ZM13.25 8.75H19.4785L19.7275 9.25H13.2246C13.241 9.16922 13.25 9.08562 13.25 9V8.75ZM11.75 3C11.75 2.86196 11.8619 2.75 12 2.75C12.1381 2.75 12.25 2.86196 12.25 3V3.25H11.75V3ZM13.25 3C13.25 2.91436 13.241 2.8308 13.2246 2.75H16.2578L16.2598 3.00391C16.2605 3.09393 16.2869 3.17733 16.3291 3.25H13.25V3Z" stroke="#050505" stroke-linecap="round" stroke-linejoin="round"/>
</svg>
