<svg width="16" height="16" viewBox="0 0 16 16" fill="none" xmlns="http://www.w3.org/2000/svg">
<path d="M10.5925 1.18396C10.6392 1.16076 10.6943 1.16076 10.741 1.18396L11.8513 1.73962C11.945 1.7863 12.0555 1.78639 12.1492 1.73962L13.2585 1.18396C13.3101 1.15816 13.3716 1.16152 13.4207 1.19177C13.4698 1.22214 13.4998 1.27561 13.4998 1.33337V14.6664C13.4998 14.7241 13.4698 14.7786 13.4207 14.809C13.3716 14.839 13.31 14.8415 13.2585 14.8158L12.1492 14.2611C12.0787 14.2258 11.9988 14.217 11.9236 14.2347L11.8513 14.2611L10.741 14.8158C10.6942 14.8391 10.6393 14.8391 10.5925 14.8158L9.48218 14.2611C9.4119 14.226 9.33251 14.2172 9.25757 14.2347L9.18433 14.2611L8.07495 14.8158C8.02803 14.8393 7.97246 14.8393 7.92554 14.8158L6.81616 14.2611C6.74574 14.2259 6.66567 14.2171 6.59058 14.2347L6.51733 14.2611L5.40796 14.8158C5.36104 14.8393 5.30547 14.8393 5.25854 14.8158L4.14917 14.2611C4.07865 14.2258 3.99876 14.217 3.92358 14.2347L3.85132 14.2611L2.74097 14.8158C2.68936 14.8415 2.62791 14.8393 2.57886 14.809C2.52972 14.7786 2.49976 14.7241 2.49976 14.6664V1.33337C2.49976 1.27572 2.52988 1.22217 2.57886 1.19177C2.62787 1.16148 2.68938 1.15834 2.74097 1.18396L3.85132 1.73962C3.94501 1.7863 4.05551 1.78639 4.14917 1.73962L5.25854 1.18396C5.30542 1.16052 5.36107 1.16056 5.40796 1.18396L6.51733 1.73962C6.61118 1.78655 6.72232 1.78655 6.81616 1.73962L7.92554 1.18396C7.97243 1.16056 8.02807 1.16052 8.07495 1.18396L9.18433 1.73962C9.27799 1.78639 9.38848 1.7863 9.48218 1.73962L10.5925 1.18396ZM10.8162 1.59412C10.7223 1.54719 10.6112 1.54719 10.5173 1.59412L9.40796 2.1488C9.36104 2.17226 9.30547 2.17226 9.25854 2.1488L8.14917 1.59412C8.07869 1.55889 7.99873 1.55004 7.92358 1.56775L7.85132 1.59412L6.74097 2.1488C6.69412 2.17218 6.63938 2.17218 6.59253 2.1488L5.48218 1.59412C5.38841 1.54735 5.27806 1.54726 5.18433 1.59412L4.07495 2.1488C4.02803 2.17226 3.97246 2.17226 3.92554 2.1488L3.31616 1.84412C3.21296 1.79251 3.09016 1.79823 2.99194 1.85876C2.89379 1.91943 2.83389 2.0266 2.83374 2.14197V13.8578C2.83377 13.9733 2.8937 14.0803 2.99194 14.141C3.09018 14.2016 3.2129 14.2073 3.31616 14.1556L3.92554 13.851C3.97246 13.8275 4.02803 13.8275 4.07495 13.851L5.18433 14.4056C5.27811 14.4525 5.38837 14.4525 5.48218 14.4056L6.59253 13.851C6.63931 13.8277 6.69419 13.8277 6.74097 13.851L7.85132 14.4056C7.94512 14.4525 8.05538 14.4525 8.14917 14.4056L9.25854 13.851C9.30547 13.8275 9.36104 13.8275 9.40796 13.851L10.5173 14.4056C10.6112 14.4526 10.7223 14.4526 10.8162 14.4056L11.9255 13.851C11.9725 13.8275 12.028 13.8275 12.075 13.851L12.6843 14.1556C12.7877 14.2073 12.9103 14.2017 13.0085 14.141C13.1068 14.0803 13.1667 13.9733 13.1667 13.8578V2.14197C13.1666 2.0266 13.1067 1.91943 13.0085 1.85876C12.9103 1.7981 12.7876 1.79249 12.6843 1.84412L12.075 2.1488C12.028 2.17226 11.9725 2.17226 11.9255 2.1488L10.8162 1.59412ZM9.33374 7.83337C9.73145 7.83346 10.1131 7.9916 10.3943 8.27283C10.6755 8.55412 10.8337 8.93563 10.8337 9.33337C10.8337 9.73112 10.6755 10.1126 10.3943 10.3939C10.1131 10.6751 9.73145 10.8333 9.33374 10.8334H8.83374V10.5004H9.33374C9.64289 10.5003 9.93927 10.3771 10.158 10.1586C10.3768 9.93978 10.4998 9.64279 10.4998 9.33337C10.4998 9.02395 10.3768 8.72697 10.158 8.50818C9.93927 8.28967 9.64289 8.16647 9.33374 8.16638H8.83374V7.83337H9.33374ZM8.16675 10.5004V10.8334H7.83374V10.5004H8.16675ZM7.16675 10.5004V10.8334H5.16675V10.5004H7.16675ZM8.16675 8.83337V9.83337H7.83374V8.83337H8.16675ZM6.66675 5.16638H7.16675V5.50037H6.66675C6.35733 5.50037 6.06035 5.62337 5.84155 5.84216C5.62304 6.06085 5.49984 6.35723 5.49976 6.66638C5.49976 6.97572 5.62286 7.2728 5.84155 7.49158C6.06035 7.71037 6.35733 7.83337 6.66675 7.83337H7.16675V8.16638H6.66675C6.26892 8.16638 5.88751 8.00823 5.6062 7.72693C5.325 7.44564 5.16675 7.06413 5.16675 6.66638C5.16683 6.26867 5.32497 5.88706 5.6062 5.60583C5.88749 5.32463 6.269 5.16638 6.66675 5.16638ZM8.16675 7.83337V8.16638H7.83374V7.83337H8.16675ZM8.16675 6.16638V7.16638H7.83374V6.16638H8.16675ZM10.8337 5.16638V5.50037H8.83374V5.16638H10.8337ZM8.16675 5.16638V5.50037H7.83374V5.16638H8.16675Z" stroke="#050505" stroke-width="0.666667" stroke-linecap="square" stroke-linejoin="round"/>
</svg>
