<svg width="24" height="24" viewBox="0 0 24 24" fill="none" xmlns="http://www.w3.org/2000/svg">
<path d="M19.8887 1.77637C19.9661 1.73783 20.0583 1.74163 20.1318 1.78711C20.2054 1.83268 20.25 1.91343 20.25 2V22C20.25 22.0866 20.2054 22.1673 20.1318 22.2129C20.0583 22.2584 19.9661 22.2622 19.8887 22.2236L18.2236 21.3916C18.118 21.3388 17.9983 21.3251 17.8857 21.3516L17.7764 21.3916L16.1113 22.2236C16.0412 22.2586 15.9588 22.2586 15.8887 22.2236L14.2236 21.3916C14.118 21.3388 13.9983 21.3251 13.8857 21.3516L13.7764 21.3916L12.1113 22.2236C12.0412 22.2586 11.9588 22.2586 11.8887 22.2236L10.2236 21.3916C10.118 21.3388 9.99835 21.3251 9.88574 21.3516L9.77637 21.3916L8.11133 22.2236C8.04116 22.2586 7.95884 22.2586 7.88867 22.2236L6.22363 21.3916C6.11804 21.3388 5.99835 21.3251 5.88574 21.3516L5.77637 21.3916L4.11133 22.2236C4.03391 22.2622 3.94174 22.2584 3.86816 22.2129C3.79457 22.1673 3.75 22.0866 3.75 22V2C3.75 1.91343 3.79457 1.83268 3.86816 1.78711C3.94174 1.74163 4.03391 1.73783 4.11133 1.77637L5.77637 2.6084C5.91713 2.67878 6.08287 2.67878 6.22363 2.6084L7.88867 1.77637C7.95884 1.74144 8.04116 1.74144 8.11133 1.77637L9.77637 2.6084C9.91713 2.67878 10.0829 2.67878 10.2236 2.6084L11.8887 1.77637C11.9588 1.74144 12.0412 1.74144 12.1113 1.77637L13.7764 2.6084C13.9171 2.67878 14.0829 2.67878 14.2236 2.6084L15.8887 1.77637C15.9588 1.74144 16.0412 1.74144 16.1113 1.77637L17.7764 2.6084C17.9171 2.67878 18.0829 2.67878 18.2236 2.6084L19.8887 1.77637ZM15.8857 2.35156L15.7764 2.3916L14.1113 3.22363C14.0412 3.25856 13.9588 3.25856 13.8887 3.22363L12.2236 2.3916C12.118 2.3388 11.9983 2.32515 11.8857 2.35156L11.7764 2.3916L10.1113 3.22363C10.0412 3.25856 9.95884 3.25856 9.88867 3.22363L8.22363 2.3916C8.11804 2.3388 7.99835 2.32515 7.88574 2.35156L7.77637 2.3916L6.11133 3.22363C6.04116 3.25856 5.95884 3.25856 5.88867 3.22363L4.97363 2.7666C4.8187 2.68914 4.63468 2.69708 4.4873 2.78809C4.3399 2.87919 4.25 3.04058 4.25 3.21387V20.7861L4.25391 20.8506C4.27304 20.9988 4.35826 21.1322 4.4873 21.2119C4.63468 21.3029 4.8187 21.3109 4.97363 21.2334L5.88867 20.7764C5.95884 20.7414 6.04116 20.7414 6.11133 20.7764L7.77637 21.6084C7.91713 21.6788 8.08287 21.6788 8.22363 21.6084L9.88867 20.7764C9.95884 20.7414 10.0412 20.7414 10.1113 20.7764L11.7764 21.6084C11.9171 21.6788 12.0829 21.6788 12.2236 21.6084L13.8887 20.7764C13.9588 20.7414 14.0412 20.7414 14.1113 20.7764L15.7764 21.6084C15.9171 21.6788 16.0829 21.6788 16.2236 21.6084L17.8887 20.7764C17.9588 20.7414 18.0412 20.7414 18.1113 20.7764L19.0264 21.2334C19.1813 21.3109 19.3653 21.3029 19.5127 21.2119C19.6601 21.1208 19.75 20.9594 19.75 20.7861V3.21387C19.75 3.04058 19.6601 2.87919 19.5127 2.78809C19.3653 2.69708 19.1813 2.68914 19.0264 2.7666L18.1113 3.22363C18.0412 3.25856 17.9588 3.25856 17.8887 3.22363L16.2236 2.3916C16.118 2.3388 15.9983 2.32515 15.8857 2.35156ZM14 11.75C14.5967 11.75 15.1689 11.9872 15.5908 12.4092C16.0128 12.8311 16.25 13.4033 16.25 14C16.25 14.5967 16.0128 15.1689 15.5908 15.5908C15.1689 16.0128 14.5967 16.25 14 16.25H13.25V15.75H14C14.4641 15.75 14.9091 15.5655 15.2373 15.2373C15.5655 14.9091 15.75 14.4641 15.75 14C15.75 13.5359 15.5655 13.0909 15.2373 12.7627C14.9091 12.4345 14.4641 12.25 14 12.25H13.25V11.75H14ZM12.25 15.75V16.25H11.75V15.75H12.25ZM10.75 15.75V16.25H7.75V15.75H10.75ZM12.25 13.25V14.75H11.75V13.25H12.25ZM10 7.75H10.75V8.25H10C9.53587 8.25 9.09088 8.43451 8.7627 8.7627C8.43451 9.09088 8.25 9.53587 8.25 10C8.25 10.4641 8.43451 10.9091 8.7627 11.2373C9.09088 11.5655 9.53587 11.75 10 11.75H10.75V12.25H10C9.40326 12.25 8.83114 12.0128 8.40918 11.5908C7.98722 11.1689 7.75 10.5967 7.75 10C7.75 9.40326 7.98722 8.83114 8.40918 8.40918C8.83114 7.98722 9.40326 7.75 10 7.75ZM12.25 11.75V12.25H11.75V11.75H12.25ZM12.25 9.25V10.75H11.75V9.25H12.25ZM16.25 7.75V8.25H13.25V7.75H16.25ZM12.25 7.75V8.25H11.75V7.75H12.25Z" stroke="#050505" stroke-linecap="square" stroke-linejoin="round"/>
</svg>
