<svg width="24" height="24" viewBox="0 0 24 24" fill="none" xmlns="http://www.w3.org/2000/svg">
<path fill-rule="evenodd" clip-rule="evenodd" d="M3.08058 3.92531C4.25269 2.75321 5.8424 2.09473 7.5 2.09473C8.45514 2.09473 9.31239 2.23111 10.147 2.59461C10.7904 2.87486 11.3924 3.27793 12 3.81448C12.6076 3.27793 13.2096 2.87486 13.853 2.59461C14.6876 2.23111 15.5449 2.09473 16.5 2.09473C18.1576 2.09473 19.7473 2.75321 20.9194 3.92531C22.0915 5.09741 22.75 6.68712 22.75 8.34473C22.75 10.9737 21.0154 12.9197 19.5276 14.3778L12 21.9054L4.47414 14.3795C2.97096 12.9259 1.25 10.9819 1.25 8.34473C1.25 6.68712 1.90848 5.09741 3.08058 3.92531ZM7.5 3.59473C6.24022 3.59473 5.03204 4.09517 4.14124 4.98597C3.25045 5.87677 2.75 7.08495 2.75 8.34473C2.75 10.3049 4.02553 11.8596 5.52127 13.3055L5.53041 13.3143L12 19.7841L18.4751 13.309C19.9667 11.8474 21.25 10.2942 21.25 8.34473C21.25 7.08495 20.7496 5.87677 19.8588 4.98597C18.968 4.09517 17.7598 3.59473 16.5 3.59473C15.6951 3.59473 15.0524 3.70834 14.452 3.96984C13.8467 4.23345 13.2376 4.6678 12.5303 5.37506L12 5.90539L11.4697 5.37506C10.7624 4.6678 10.1533 4.23345 9.54802 3.96984C8.94761 3.70834 8.30486 3.59473 7.5 3.59473Z" fill="#050505"/>
</svg>
