<svg width="24" height="24" viewBox="0 0 24 24" fill="none" xmlns="http://www.w3.org/2000/svg">
<path d="M2 4.25H14C14.1381 4.25 14.25 4.36193 14.25 4.5V7.75C14.25 8.02614 14.4739 8.25 14.75 8.25H19C19.0663 8.25 19.1299 8.27636 19.1768 8.32324L21.0068 10.1533C21.4013 10.5483 21.7145 11.0174 21.9277 11.5332C22.141 12.0491 22.2504 12.6019 22.25 13.1602V16.5C22.25 16.6381 22.1381 16.75 22 16.75H20.7402C20.5117 16.7501 20.3173 16.9042 20.2588 17.1172L20.2422 17.2119C20.1342 18.6313 18.9474 19.75 17.5 19.75C16.0397 19.75 14.8453 18.6113 14.7559 17.1738C14.752 17.1124 14.7328 17.0547 14.708 17H15C15.0928 17 15.1785 16.9727 15.2529 16.9287C15.2522 16.9524 15.25 16.9761 15.25 17C15.25 18.2426 16.2574 19.25 17.5 19.25C18.7426 19.25 19.75 18.2426 19.75 17C19.75 15.7574 18.7426 14.75 17.5 14.75C16.5393 14.75 15.7211 15.3528 15.3984 16.2002C15.3072 16.0791 15.1633 16 15 16H14C13.7239 16 13.5 16.2239 13.5 16.5C13.5 16.5915 13.5264 16.6762 13.5693 16.75H10.7402C10.5117 16.7501 10.3173 16.9042 10.2588 17.1172L10.2422 17.2119C10.1342 18.6313 8.94738 19.75 7.5 19.75C6.05262 19.75 4.86579 18.6313 4.75781 17.2119C4.74039 16.984 4.5723 16.801 4.35547 16.7588L4.25977 16.75H2C1.86193 16.75 1.75 16.6381 1.75 16.5V4.5C1.75 4.36193 1.86193 4.25 2 4.25ZM7.5 14.75C6.25736 14.75 5.25 15.7574 5.25 17C5.25 18.2426 6.25736 19.25 7.5 19.25C8.74264 19.25 9.75 18.2426 9.75 17C9.75 15.7574 8.74264 14.75 7.5 14.75ZM2.75 4.75C2.47386 4.75 2.25 4.97386 2.25 5.25V15.75L2.25977 15.8506C2.30629 16.0786 2.50829 16.25 2.75 16.25H4.49902C4.70082 16.25 4.88327 16.1286 4.96094 15.9424C5.37582 14.9477 6.35688 14.25 7.5 14.25C8.64312 14.25 9.62418 14.9477 10.0391 15.9424C10.1167 16.1286 10.2992 16.25 10.501 16.25H13.25C13.5261 16.25 13.75 16.0261 13.75 15.75V5.25C13.75 5.00829 13.5786 4.80629 13.3506 4.75977L13.25 4.75H2.75ZM14.75 8.75C14.4739 8.75 14.25 8.97386 14.25 9.25V15.2676C14.2502 15.49 14.3976 15.6852 14.6113 15.7471C14.8251 15.8089 15.054 15.7224 15.1729 15.5342C15.6608 14.7615 16.5208 14.25 17.5 14.25C18.6431 14.25 19.6242 14.9477 20.0391 15.9424C20.1167 16.1286 20.2992 16.25 20.501 16.25H21.25C21.5261 16.25 21.75 16.0261 21.75 15.75V13.1602L21.7461 12.9756C21.7252 12.546 21.6305 12.1219 21.4658 11.7236C21.3012 11.3255 21.0688 10.9594 20.7803 10.6406L20.6533 10.5068L19.043 8.89648C18.9726 8.82611 18.8833 8.77895 18.7871 8.75977L18.6895 8.75H14.75Z" stroke="#050505" stroke-linecap="round" stroke-linejoin="round"/>
</svg>
