<svg width="24" height="24" viewBox="0 0 24 24" fill="none" xmlns="http://www.w3.org/2000/svg">
<path d="M14.6553 8.90527C15.4103 8.90527 16.1579 9.05389 16.8555 9.34277C17.5531 9.63173 18.1868 10.0559 18.7207 10.5898C19.2546 11.1238 19.6788 11.7575 19.9678 12.4551C20.2567 13.1526 20.4053 13.9003 20.4053 14.6553C20.4053 15.4102 20.2566 16.158 19.9678 16.8555C19.6788 17.5531 19.2546 18.1877 18.7207 18.7217C18.1869 19.2554 17.5529 19.6789 16.8555 19.9678C16.1579 20.2567 15.4103 20.4053 14.6553 20.4053H10.9053V19.9053H14.6553C15.3446 19.9053 16.0272 19.7696 16.6641 19.5059C17.3008 19.2421 17.8798 18.8555 18.3672 18.3682C18.8547 17.8807 19.242 17.301 19.5059 16.6641C19.7696 16.0272 19.9053 15.3446 19.9053 14.6553C19.9053 13.966 19.7696 13.2833 19.5059 12.6465C19.242 12.0095 18.8547 11.4309 18.3672 10.9434C17.8797 10.4559 17.301 10.0685 16.6641 9.80469C16.0272 9.54095 15.3446 9.40527 14.6553 9.40527H6.17285L5.92285 9.15527L6.17285 8.90527H14.6553ZM5.75879 10.4053L9.50879 14.1553L9.15527 14.5088L5.05176 10.4053H5.75879ZM4.75879 8.90527L4.50879 9.15527L4.75879 9.40527H4.40527V8.90527H4.75879ZM9.50879 4.15527L5.75879 7.90527H5.05176L9.15527 3.80176L9.50879 4.15527Z" stroke="#050505" stroke-linecap="square"/>
</svg>
